<?xml version="1.0"?>
<svg xmlns="http://www.w3.org/2000/svg" id="outline" height="512px" viewBox="0 0 512 512" width="512px"><g><path d="m448 16h-384a24.0275 24.0275 0 0 0 -24 24v432a24.0275 24.0275 0 0 0 24 24h384a24.0275 24.0275 0 0 0 24-24v-432a24.0275 24.0275 0 0 0 -24-24zm-384 16h384a8.00917 8.00917 0 0 1 8 8v24h-400v-24a8.00917 8.00917 0 0 1 8-8zm384 448h-384a8.00917 8.00917 0 0 1 -8-8v-392h400v392a8.00917 8.00917 0 0 1 -8 8z" data-original="#000000" class="active-path" data-old_color="#000000" fill="#FFFFFF"/><circle cx="80" cy="48" r="8" data-original="#000000" class="active-path" data-old_color="#000000" fill="#FFFFFF"/><circle cx="104" cy="48" r="8" data-original="#000000" class="active-path" data-old_color="#000000" fill="#FFFFFF"/><circle cx="128" cy="48" r="8" data-original="#000000" class="active-path" data-old_color="#000000" fill="#FFFFFF"/><path d="m256 224a64 64 0 1 0 -64-64 64.07239 64.07239 0 0 0 64 64zm-24-22.45752v-8.41648a23.95337 23.95337 0 0 1 10.687-19.96973l.9184-.6123a23.95395 23.95395 0 0 0 24.78894.00024l.91814.61206a23.95261 23.95261 0 0 1 10.68752 19.96973v8.4165a47.82793 47.82793 0 0 1 -48 0zm32-49.54248a8 8 0 0 1 -16 0v-8a8 8 0 0 1 16 0zm-8-40a47.9681 47.9681 0 0 1 39.53937 75.17285 39.88734 39.88734 0 0 0 -16.95764-27.04858 23.88631 23.88631 0 0 0 1.41827-8.12427v-8a24 24 0 0 0 -48 0v8a23.88522 23.88522 0 0 0 1.41821 8.124 39.88754 39.88754 0 0 0 -16.95758 27.04883 47.9681 47.9681 0 0 1 39.53937-75.17283z" data-original="#000000" class="active-path" data-old_color="#000000" fill="#FFFFFF"/><path d="m200 240h24v16h-24z" data-original="#000000" class="active-path" data-old_color="#000000" fill="#FFFFFF"/><path d="m240 240h72v16h-72z" data-original="#000000" class="active-path" data-old_color="#000000" fill="#FFFFFF"/><path d="m160 360h16v16h-16z" data-original="#000000" class="active-path" data-old_color="#000000" fill="#FFFFFF"/><path d="m192 360h48v16h-48z" data-original="#000000" class="active-path" data-old_color="#000000" fill="#FFFFFF"/><path d="m160 328h16v16h-16z" data-original="#000000" class="active-path" data-old_color="#000000" fill="#FFFFFF"/><path d="m192 328h32v16h-32z" data-original="#000000" class="active-path" data-old_color="#000000" fill="#FFFFFF"/><path d="m200 272h48v16h-48z" data-original="#000000" class="active-path" data-old_color="#000000" fill="#FFFFFF"/><path d="m264 272h48v16h-48z" data-original="#000000" class="active-path" data-old_color="#000000" fill="#FFFFFF"/><path d="m160 440h16v16h-16z" data-original="#000000" class="active-path" data-old_color="#000000" fill="#FFFFFF"/><path d="m192 440h48v16h-48z" data-original="#000000" class="active-path" data-old_color="#000000" fill="#FFFFFF"/><path d="m160 408h16v16h-16z" data-original="#000000" class="active-path" data-old_color="#000000" fill="#FFFFFF"/><path d="m192 408h32v16h-32z" data-original="#000000" class="active-path" data-old_color="#000000" fill="#FFFFFF"/><path d="m352 360h16v16h-16z" data-original="#000000" class="active-path" data-old_color="#000000" fill="#FFFFFF"/><path d="m384 360h48v16h-48z" data-original="#000000" class="active-path" data-old_color="#000000" fill="#FFFFFF"/><path d="m352 328h16v16h-16z" data-original="#000000" class="active-path" data-old_color="#000000" fill="#FFFFFF"/><path d="m384 328h32v16h-32z" data-original="#000000" class="active-path" data-old_color="#000000" fill="#FFFFFF"/><path d="m352 440h16v16h-16z" data-original="#000000" class="active-path" data-old_color="#000000" fill="#FFFFFF"/><path d="m384 440h48v16h-48z" data-original="#000000" class="active-path" data-old_color="#000000" fill="#FFFFFF"/><path d="m352 408h16v16h-16z" data-original="#000000" class="active-path" data-old_color="#000000" fill="#FFFFFF"/><path d="m384 408h32v16h-32z" data-original="#000000" class="active-path" data-old_color="#000000" fill="#FFFFFF"/><path d="m132.686 320h-44.686a8.00008 8.00008 0 0 0 -8 8v48a8.00008 8.00008 0 0 0 8 8h48a8.00008 8.00008 0 0 0 8-8v-44.686l13.65674-13.65673-11.31348-11.31446zm-4.686 48h-32v-32h20.686l-10.34278 10.34277 11.31348 11.31446 10.3433-10.34323z" data-original="#000000" class="active-path" data-old_color="#000000" fill="#FFFFFF"/><path d="m146.34326 386.34277-13.65726 13.65723h-44.686a8.00008 8.00008 0 0 0 -8 8v48a8.00008 8.00008 0 0 0 8 8h48a8.00008 8.00008 0 0 0 8-8v-44.686l13.65674-13.65673zm-18.34326 61.65723h-32v-32h20.686l-10.34278 10.34277 11.31348 11.31446 10.3433-10.34323z" data-original="#000000" class="active-path" data-old_color="#000000" fill="#FFFFFF"/><path d="m324.686 320h-44.686a8.00008 8.00008 0 0 0 -8 8v48a8.00008 8.00008 0 0 0 8 8h48a8.00008 8.00008 0 0 0 8-8v-44.686l13.65674-13.65673-11.31348-11.31446zm-4.686 48h-32v-32h20.686l-10.34278 10.34277 11.31348 11.31446 10.3433-10.34323z" data-original="#000000" class="active-path" data-old_color="#000000" fill="#FFFFFF"/><path d="m338.34326 386.34277-13.65726 13.65723h-44.686a8.00008 8.00008 0 0 0 -8 8v48a8.00008 8.00008 0 0 0 8 8h48a8.00008 8.00008 0 0 0 8-8v-44.686l13.65674-13.65673zm-18.34326 61.65723h-32v-32h20.686l-10.34278 10.34277 11.31348 11.31446 10.3433-10.34323z" data-original="#000000" class="active-path" data-old_color="#000000" fill="#FFFFFF"/></g> </svg>
