<svg width="564" height="385" viewBox="0 0 564 385" fill="none" xmlns="http://www.w3.org/2000/svg">
<rect x="274.378" y="245.126" width="56.8157" height="138.489" fill="white"/>
<path fill-rule="evenodd" clip-rule="evenodd" d="M245.278 117.725C245.278 109.307 252.102 102.482 260.521 102.482C268.939 102.482 275.764 109.307 275.764 117.725V253.435H272.745C272.666 257.729 272.576 262.095 272.486 266.493C272.217 279.518 271.942 292.825 271.942 305.369C271.942 339.177 277.12 353.455 280.597 363.042C283.414 370.81 285.114 375.497 282.035 385H272C259.745 366.127 242.177 305.369 242.177 305.369C242.177 305.369 238.353 259.703 245.278 223.347V117.725Z" fill="white"/>
<path d="M356.138 291.52C356.138 341.618 337.917 384.308 329.115 384.308C320.314 384.308 324.265 341.618 324.265 291.52C324.265 241.422 331.4 202.194 340.201 202.194C349.902 201.502 356.138 241.422 356.138 291.52Z" fill="white"/>
<path d="M241.864 253.431C242.344 254.217 243.476 254.839 244.471 254.839C245.493 254.839 246.489 255.224 247.47 255.262C249.403 255.336 251.33 256.107 253.279 256.107C254.098 256.107 254.914 256.444 255.73 256.522C256.774 256.621 257.802 256.742 258.846 256.819C260.82 256.965 262.777 257.471 264.757 257.515C267.54 257.577 270.267 258.642 273.033 258.642C274.344 258.642 275.67 258.576 276.972 258.752C279.101 259.039 281.216 259.607 283.345 259.878C285.086 260.1 286.807 260.5 288.528 260.81C290.659 261.193 292.862 261.234 295.003 261.545C297.167 261.859 299.322 262.204 301.478 262.586C302.664 262.796 303.853 262.955 305.04 263.149C306.148 263.331 307.177 263.763 308.274 263.994C311.473 264.667 314.77 264.86 317.991 265.403C319.893 265.723 321.818 265.978 323.737 266.177C326.54 266.469 329.355 266.389 332.17 266.389C336.219 266.389 340.289 266.248 344.321 266.248C345.091 266.248 345.815 265.966 346.576 265.966C347.154 265.966 348.078 265.822 348.62 265.614C348.901 265.506 349.406 265.136 349.677 265.121C350.143 265.095 350.408 265.103 350.804 264.839" stroke="black" stroke-width="0.25" stroke-linecap="round" stroke-linejoin="round"/>
<path d="M243.273 256.529C243.875 256.764 244.645 257.265 245.254 257.367C245.724 257.445 246.433 257.338 246.867 257.531C247.177 257.669 247.181 257.797 247.572 257.797C247.869 257.797 248.196 257.762 248.488 257.828C248.982 257.941 249.455 258.079 249.967 258.079C250.493 258.079 250.929 258.346 251.447 258.36C252.121 258.379 252.702 258.547 253.358 258.634C254.415 258.775 255.541 258.722 256.607 258.791C257.356 258.839 258.011 259.169 258.768 259.213C259.322 259.246 259.89 259.359 260.436 259.456C262.008 259.735 263.64 259.798 265.196 260.16C266.905 260.558 268.699 260.679 270.426 261.052C271.925 261.376 273.377 261.6 274.92 261.6C276.468 261.6 278.076 262.038 279.602 262.273C280.572 262.422 281.548 262.586 282.531 262.586C283.634 262.586 284.672 262.944 285.772 263.04C288.317 263.262 290.821 263.994 293.375 263.994C294.602 263.994 295.759 264.54 296.968 264.558C298.151 264.574 299.462 264.746 300.633 264.949C303.063 265.369 305.523 265.36 307.953 265.88C308.84 266.07 309.778 266.008 310.678 266.169C311.417 266.302 312.208 266.491 312.956 266.529C313.707 266.568 314.428 266.783 315.18 266.811C316.223 266.85 317.274 267.164 318.327 267.241C319.601 267.336 320.85 267.536 322.109 267.727C324.545 268.095 326.785 268.36 329.242 268.36C333.412 268.36 337.583 268.36 341.753 268.36C342.669 268.36 343.619 268.36 344.517 268.204C344.895 268.138 345.057 267.806 345.48 267.797C346.218 267.781 346.958 267.797 347.696 267.797C348.414 267.797 349.131 267.797 349.849 267.797C350.629 267.797 351.091 267.467 351.791 267.234" stroke="black" stroke-width="0.25" stroke-linecap="round" stroke-linejoin="round"/>
<path d="M276.264 196.663C276.264 189.286 282.244 183.306 289.622 183.306C296.999 183.306 302.979 189.286 302.979 196.663V250.657C302.979 258.034 296.999 264.014 289.622 264.014C282.244 264.014 276.264 258.034 276.264 250.657V196.663Z" fill="white" stroke="black"/>
<path d="M303.979 200.816C303.979 194.97 308.719 190.23 314.565 190.23C320.412 190.23 325.151 194.97 325.151 200.816V260.353C325.151 266.199 320.412 270.939 314.565 270.939C308.719 270.939 303.979 266.199 303.979 260.353V200.816Z" fill="white" stroke="black"/>
<path d="M326.151 211.202C326.151 205.739 330.58 201.309 336.044 201.309C341.508 201.309 345.937 205.739 345.937 211.202V249.967C345.937 255.43 341.508 259.86 336.044 259.86C330.58 259.86 326.151 255.43 326.151 249.967V211.202Z" fill="white" stroke="black"/>
<rect x="281.432" y="238.326" width="16.379" height="21.9083" rx="8.1895" fill="white" stroke="black" stroke-width="0.25"/>
<rect x="307.761" y="248.021" width="13.6075" height="19.1385" rx="6.80375" fill="white" stroke="black" stroke-width="0.25"/>
<rect x="331.319" y="239.711" width="10.836" height="16.3687" rx="5.418" fill="white" stroke="black" stroke-width="0.25"/>
<path fill-rule="evenodd" clip-rule="evenodd" d="M331.194 238.055C331.194 237.952 331.194 237.848 331.194 237.744C330.195 235.48 329.805 233.946 328.866 232.909C326.549 230.35 320.887 230.819 294.472 230.819C257.353 230.819 241.12 273.267 241.12 283.21C241.12 284.93 241.606 285.185 242.602 284.43C241.655 288.091 241.12 291.881 241.12 295.739C241.12 322.731 255.409 334.287 265.687 334.287C295.155 368.017 308.337 312.948 277.567 280.143C278.716 274.604 279.839 269.841 280.799 265.774C281.778 261.62 282.587 258.192 283.078 255.404C286.632 254.591 290.428 254.128 294.472 254.128C331.201 254.128 331.198 247.821 331.194 238.055Z" fill="white"/>
<path d="M316.385 247.04C312.101 248.058 307.987 244.815 307.976 240.412C307.968 236.974 310.517 234.068 313.926 233.626L321.736 232.615C325.569 232.119 328.968 235.099 328.977 238.964C328.984 241.94 326.943 244.53 324.047 245.218L316.385 247.04Z" fill="white" stroke="black" stroke-width="0.25"/>
<path d="M266.021 240.669C266.16 240.614 266.332 240.542 266.45 240.444C266.491 240.409 266.592 240.398 266.625 240.348C266.658 240.296 266.715 240.243 266.76 240.198C266.864 240.095 267.031 240.014 267.179 239.982C267.268 239.962 267.446 239.848 267.514 239.787C267.566 239.74 267.616 239.732 267.673 239.696C267.85 239.586 268.02 239.48 268.161 239.32C268.343 239.112 268.51 238.986 268.767 238.888C269.318 238.68 269.73 238.24 270.249 237.973C270.334 237.929 270.402 237.878 270.472 237.814C270.579 237.716 270.757 237.673 270.878 237.588C270.96 237.531 271.061 237.499 271.149 237.449C271.235 237.401 271.309 237.335 271.393 237.289C271.59 237.18 271.769 237.05 271.971 236.947C272.169 236.845 272.349 236.733 272.558 236.649C272.729 236.581 272.906 236.5 273.064 236.402C273.2 236.317 273.351 236.163 273.502 236.117C273.646 236.073 273.722 235.91 273.871 235.86C274.144 235.769 274.412 235.669 274.689 235.576C274.783 235.545 274.862 235.457 274.929 235.39C275.041 235.278 275.21 235.206 275.345 235.124C275.599 234.969 275.894 234.915 276.167 234.796C276.272 234.75 276.373 234.69 276.477 234.641C276.535 234.614 276.591 234.626 276.647 234.604C276.69 234.588 276.72 234.551 276.765 234.551" stroke="black" stroke-linecap="round" stroke-linejoin="round"/>
<path d="M277.172 234.465C277.373 234.319 277.626 234.296 277.834 234.166C278.012 234.055 278.191 233.947 278.375 233.84C278.484 233.778 278.62 233.763 278.734 233.706C278.821 233.662 278.903 233.603 278.991 233.566C279.062 233.535 279.106 233.46 279.183 233.427C279.22 233.41 279.269 233.379 279.3 233.352C279.342 233.317 279.394 233.295 279.431 233.258C279.471 233.218 279.565 233.233 279.617 233.187C279.669 233.14 279.801 233.109 279.869 233.075C280.019 233 280.197 233.047 280.356 232.994C280.515 232.941 280.657 232.907 280.81 232.83C281.047 232.712 281.274 232.654 281.526 232.594C281.843 232.518 282.155 232.465 282.48 232.417C282.654 232.391 282.819 232.342 282.983 232.274C283.12 232.218 283.311 232.204 283.456 232.175C283.592 232.149 283.72 232.083 283.855 232.053C284.008 232.019 284.172 231.983 284.316 231.925C284.482 231.858 284.663 231.824 284.834 231.77C285.041 231.705 285.26 231.65 285.476 231.642C285.661 231.635 285.885 231.602 286.063 231.555C286.19 231.521 286.299 231.52 286.429 231.512C286.545 231.506 286.652 231.457 286.768 231.45C286.897 231.443 287.021 231.41 287.147 231.385C287.357 231.343 287.576 231.359 287.788 231.321C288.014 231.281 288.244 231.278 288.473 231.278C288.656 231.278 288.822 231.252 289.003 231.231C289.114 231.218 289.224 231.194 289.336 231.193C289.41 231.191 289.502 231.208 289.572 231.183C289.695 231.139 289.831 231.176 289.95 231.128" stroke="black" stroke-linecap="round" stroke-linejoin="round"/>
<path d="M290.485 231.043C291.641 231.043 292.797 231.043 293.952 231.043C294.449 231.043 294.945 231.043 295.441 231.043C296.321 231.043 297.198 230.979 298.078 230.979C298.45 230.979 298.832 231.004 299.201 230.952C299.566 230.901 299.917 230.872 300.287 230.872C301.095 230.872 301.903 230.872 302.711 230.872C303.038 230.872 303.338 230.885 303.66 230.948C303.85 230.985 304.056 231.017 304.247 231.04C304.427 231.063 304.613 231.023 304.793 231.044C305.025 231.071 305.267 231.086 305.501 231.086C305.731 231.086 305.967 231.128 306.195 231.128" stroke="black" stroke-linecap="round" stroke-linejoin="round"/>
<path d="M306.259 231.15C306.438 231.123 306.607 231.051 306.786 231.044C306.975 231.037 307.129 230.968 307.308 230.919C307.463 230.877 307.64 230.829 307.8 230.829C308.218 230.829 308.631 230.695 309.051 230.679C309.14 230.676 309.218 230.631 309.306 230.62C309.385 230.61 309.467 230.615 309.547 230.615C309.666 230.615 309.784 230.615 309.903 230.615C310.091 230.615 310.28 230.615 310.469 230.615C311.08 230.615 311.698 230.64 312.306 230.595C313.322 230.52 314.366 230.572 315.384 230.572C316.127 230.572 316.87 230.572 317.613 230.572C317.697 230.572 317.771 230.606 317.852 230.624C317.986 230.655 318.125 230.638 318.257 230.667C318.413 230.701 318.572 230.72 318.727 230.755C319.149 230.85 319.584 230.893 320.016 230.893C320.339 230.893 320.661 230.893 320.984 230.893C321.22 230.893 321.457 230.936 321.691 230.936" stroke="black" stroke-linecap="round" stroke-linejoin="round"/>
<path d="M321.97 230.979C322.099 231.068 322.23 231.171 322.398 231.171C322.456 231.171 322.518 231.194 322.574 231.209C322.671 231.235 322.785 231.215 322.886 231.235C322.993 231.257 323.105 231.247 323.211 231.273C323.367 231.312 323.518 231.321 323.677 231.321C323.886 231.321 324.094 231.321 324.303 231.321C324.453 231.321 324.586 231.385 324.73 231.385C324.995 231.385 325.243 231.437 325.504 231.48C325.636 231.502 325.774 231.492 325.908 231.492C325.996 231.492 326.032 231.515 326.111 231.544C326.276 231.605 326.417 231.702 326.571 231.78C326.774 231.881 326.992 231.943 327.192 232.043C327.345 232.12 327.499 232.21 327.643 232.306C327.941 232.505 328.3 232.628 328.613 232.806C328.779 232.9 328.914 233.02 329.059 233.139C329.153 233.216 329.258 233.293 329.356 233.364C329.483 233.455 329.559 233.564 329.649 233.69C329.727 233.8 329.793 233.917 329.869 234.028C329.95 234.145 330.076 234.241 330.141 234.368C330.197 234.475 330.238 234.581 330.306 234.682C330.384 234.796 330.394 234.935 330.467 235.05C330.54 235.165 330.495 235.306 330.524 235.435C330.56 235.595 330.68 235.679 330.732 235.822C330.809 236.035 330.825 236.274 330.979 236.455C331.085 236.577 331.096 236.828 331.142 236.977C331.175 237.084 331.174 237.206 331.207 237.316C331.248 237.457 331.235 237.599 331.268 237.738C331.356 238.098 331.381 238.436 331.343 238.809C331.327 238.97 331.28 239.139 331.28 239.301C331.28 239.494 331.323 239.672 331.323 239.869C331.323 240.242 331.195 240.591 331.195 240.961C331.195 241.191 331.201 241.408 331.152 241.631C331.094 241.89 331.095 242.145 331.088 242.411C331.085 242.498 331.023 242.558 331.023 242.645C331.023 242.722 331.001 242.772 330.976 242.846C330.938 242.957 330.938 243.054 330.938 243.171" stroke="black" stroke-linecap="round" stroke-linejoin="round"/>
<path d="M330.981 243.685C330.981 243.799 331.019 244.028 330.959 244.129C330.923 244.19 330.938 244.278 330.938 244.346C330.938 244.449 330.916 244.545 330.916 244.647C330.916 244.794 330.898 244.942 330.872 245.084C330.855 245.178 330.757 245.263 330.728 245.358C330.693 245.479 330.601 245.561 330.545 245.674C330.505 245.756 330.526 245.848 330.507 245.933C330.486 246.03 330.422 246.141 330.381 246.235C330.356 246.293 330.31 246.308 330.274 246.36C330.238 246.412 330.206 246.468 330.158 246.509C330.1 246.559 330.083 246.657 330.051 246.722C330.018 246.787 329.975 246.891 329.975 246.962C329.975 247.053 329.896 247.116 329.889 247.209C329.884 247.279 329.846 247.405 329.803 247.46C329.735 247.549 329.713 247.697 329.656 247.799C329.547 247.993 329.26 248.035 329.14 248.23C329.062 248.356 328.918 248.442 328.814 248.545C328.718 248.641 328.626 248.739 328.514 248.818C328.334 248.947 328.099 249.067 327.941 249.225C327.766 249.4 327.486 249.422 327.287 249.557C327.136 249.66 326.968 249.733 326.802 249.807C326.645 249.877 326.482 249.996 326.316 250.037C326.231 250.059 326.15 250.135 326.058 250.161C325.962 250.188 325.89 250.257 325.796 250.289C325.36 250.44 324.967 250.679 324.533 250.834C324.349 250.899 324.179 251.012 324.003 251.095C323.93 251.13 323.859 251.163 323.788 251.202C323.733 251.232 323.643 251.23 323.597 251.267C323.542 251.313 323.389 251.32 323.317 251.352C322.889 251.539 322.446 251.696 321.991 251.834C321.809 251.889 321.623 251.926 321.438 251.972C321.284 252.011 321.125 252.003 320.971 252.048C320.802 252.098 320.62 252.139 320.457 252.198C320.314 252.25 320.175 252.333 320.024 252.367C319.86 252.403 319.676 252.516 319.508 252.519C319.298 252.523 319.068 252.519 318.866 252.578C318.6 252.656 318.305 252.674 318.05 252.787C317.776 252.91 317.489 252.993 317.217 253.119C317.015 253.212 316.806 253.258 316.597 253.32C316.475 253.356 316.339 253.396 316.21 253.396C315.968 253.396 315.728 253.454 315.487 253.477C315.252 253.499 315.009 253.481 314.773 253.481C314.491 253.481 314.212 253.503 313.931 253.503C313.5 253.503 313.089 253.517 312.671 253.63C312.42 253.698 312.172 253.774 311.91 253.781C311.673 253.787 311.438 253.888 311.201 253.888C310.774 253.888 310.319 253.846 309.896 253.904C309.109 254.014 308.297 253.973 307.501 253.973" stroke="black" stroke-linecap="round" stroke-linejoin="round"/>
<path d="M307.415 253.973C307.277 254.004 307.136 254.083 307.009 254.14C306.884 254.195 306.73 254.209 306.59 254.209C306.37 254.209 306.145 254.224 305.925 254.207C305.644 254.187 305.375 254.144 305.089 254.144C304.896 254.144 304.747 254.164 304.569 254.213C304.384 254.265 304.215 254.273 304.02 254.273C303.584 254.273 303.148 254.273 302.711 254.273C302.261 254.273 301.812 254.337 301.36 254.337C301.02 254.337 300.666 254.359 300.331 254.412C299.971 254.468 299.573 254.423 299.21 254.423C297.554 254.423 295.897 254.423 294.24 254.423C293.977 254.423 293.714 254.455 293.45 254.466C293.198 254.477 292.95 254.487 292.697 254.487C291.827 254.487 290.957 254.487 290.087 254.487C289.412 254.487 288.737 254.487 288.062 254.487C287.951 254.487 287.872 254.5 287.767 254.528C287.658 254.558 287.556 254.615 287.441 254.615C287.265 254.615 287.094 254.701 286.921 254.701C286.855 254.701 286.749 254.739 286.692 254.774C286.61 254.824 286.496 254.838 286.399 254.849C286.233 254.868 286.068 254.902 285.905 254.941C285.798 254.966 285.683 254.979 285.574 254.979C285.444 254.979 285.317 255.021 285.184 255.021C285.055 255.021 284.944 255.056 284.821 255.065C284.695 255.075 284.489 255.102 284.385 255.183C284.237 255.299 284.076 255.418 283.947 255.555C283.88 255.627 283.764 255.652 283.688 255.727C283.644 255.771 283.587 255.807 283.55 255.86C283.455 255.998 283.286 256.078 283.203 256.219C283.169 256.277 283.098 256.326 283.079 256.39C283.057 256.467 283.003 256.57 282.96 256.638C282.909 256.717 282.894 256.803 282.827 256.878C282.799 256.909 282.758 257.022 282.758 257.064C282.758 257.138 282.737 257.267 282.694 257.332" stroke="black" stroke-linecap="round" stroke-linejoin="round"/>
<path d="M282.587 257.802C282.587 258.016 282.566 258.226 282.566 258.434C282.566 258.543 282.558 258.612 282.512 258.712C282.453 258.842 282.327 258.932 282.308 259.076C282.294 259.175 282.317 259.34 282.278 259.428C282.244 259.504 282.245 259.563 282.245 259.647C282.245 259.733 282.21 259.756 282.185 259.83C282.13 259.987 282.038 260.113 282.03 260.291C282.027 260.377 282.042 260.549 282 260.621C281.893 260.8 281.973 261.086 281.859 261.269C281.824 261.325 281.766 261.447 281.751 261.513C281.732 261.598 281.681 261.709 281.613 261.769C281.569 261.808 281.512 261.872 281.463 261.898C281.421 261.922 281.426 261.984 281.41 262.028C281.367 262.145 281.367 262.245 281.367 262.369C281.367 262.598 281.396 262.868 281.279 263.076C281.157 263.293 281.018 263.495 280.891 263.711C280.768 263.92 280.789 264.207 280.789 264.443C280.789 264.916 280.492 265.254 280.266 265.648C280.183 265.793 280.163 266.184 280.233 266.337C280.287 266.457 280.297 266.54 280.297 266.671C280.297 266.9 280.125 267.058 280.083 267.279C280.024 267.59 279.812 267.871 279.763 268.187C279.747 268.292 279.783 268.39 279.783 268.493C279.783 268.676 279.757 268.874 279.714 269.054C279.677 269.211 279.655 269.343 279.655 269.507C279.655 269.736 279.592 269.921 279.5 270.128C279.425 270.296 279.312 270.471 279.312 270.658C279.312 270.782 279.323 270.907 279.372 271.021C279.411 271.116 279.376 271.29 279.376 271.39C279.376 271.519 279.343 271.59 279.248 271.685" stroke="black" stroke-linecap="round" stroke-linejoin="round"/>
<path d="M279.376 271.963C279.376 272.313 279.355 272.665 279.355 273.011C279.355 273.121 279.355 273.232 279.355 273.342C279.355 273.392 279.355 273.442 279.355 273.492C279.355 273.553 279.318 273.594 279.313 273.654C279.307 273.739 279.248 273.804 279.248 273.887C279.248 273.94 279.233 273.999 279.215 274.048C279.169 274.172 279.126 274.257 279.118 274.39C279.111 274.517 279.117 274.682 279.082 274.803C279.043 274.935 279.066 275.081 279.029 275.209C279.01 275.277 278.97 275.373 278.97 275.439C278.97 275.51 278.979 275.691 278.927 275.738C278.881 275.779 278.906 275.9 278.906 275.958C278.906 276.068 278.868 276.209 278.806 276.3C278.693 276.466 278.495 276.567 278.366 276.721C278.204 276.912 278.058 277.108 277.969 277.344C277.933 277.438 277.942 277.536 277.942 277.636C277.942 277.711 277.996 277.814 278.027 277.885C278.055 277.952 278.049 278.016 278.049 278.091C278.049 278.173 278.049 278.255 278.049 278.337C278.049 278.465 277.912 278.539 277.9 278.658C277.88 278.852 277.894 279.05 277.877 279.244C277.86 279.443 277.835 279.628 277.835 279.834C277.835 279.967 277.959 280.168 278.049 280.262C278.159 280.376 278.212 280.467 278.285 280.604C278.387 280.797 278.491 280.992 278.583 281.193C278.637 281.308 278.706 281.422 278.751 281.541C278.773 281.601 278.784 281.663 278.803 281.721C278.819 281.769 278.866 281.796 278.879 281.845C278.903 281.935 278.886 282.014 278.932 282.102C278.975 282.183 279.011 282.268 279.034 282.358" stroke="black" stroke-linecap="round" stroke-linejoin="round"/>
<path d="M279.334 281.995C279.481 282.256 279.634 282.573 279.89 282.748C279.922 282.77 279.984 282.875 280.009 282.91C280.053 282.971 280.091 283.04 280.139 283.098C280.236 283.216 280.301 283.344 280.382 283.475C280.427 283.548 280.427 283.628 280.489 283.697C280.543 283.755 280.588 283.821 280.629 283.889C280.711 284.026 280.784 284.169 280.896 284.284C280.968 284.358 281.008 284.431 281.046 284.524C281.109 284.678 281.206 284.807 281.292 284.948C281.495 285.281 281.781 285.547 281.935 285.91C281.99 286.04 282.108 286.16 282.192 286.273C282.242 286.339 282.289 286.411 282.341 286.475C282.377 286.519 282.429 286.548 282.459 286.595C282.505 286.67 282.547 286.771 282.613 286.829C283.01 287.178 283.394 287.528 283.721 287.946C283.89 288.161 284.01 288.42 284.183 288.627C284.328 288.802 284.471 288.983 284.599 289.172C284.678 289.29 284.757 289.403 284.826 289.525C284.894 289.646 284.993 289.753 285.027 289.888" stroke="black" stroke-linecap="round" stroke-linejoin="round"/>
<path d="M285.327 290.273C285.407 290.481 285.437 290.695 285.519 290.9C285.543 290.96 285.536 291.018 285.572 291.074C285.6 291.119 285.64 291.204 285.648 291.257C285.666 291.378 285.777 291.568 285.849 291.672C285.894 291.737 285.92 291.796 285.989 291.844C286.063 291.895 286.065 291.969 286.114 292.039C286.151 292.091 286.149 292.158 286.183 292.215C286.225 292.286 286.292 292.363 286.311 292.444C286.358 292.641 286.415 292.838 286.478 293.025C286.551 293.244 286.737 293.422 286.877 293.601C286.982 293.737 287.054 293.897 287.146 294.042C287.221 294.161 287.294 294.264 287.381 294.37C287.497 294.511 287.583 294.672 287.688 294.82C287.753 294.91 287.842 295.014 287.878 295.112C287.938 295.273 288.083 295.408 288.141 295.571C288.204 295.745 288.263 295.938 288.345 296.101C288.384 296.18 288.399 296.222 288.49 296.257C288.524 296.271 288.58 296.325 288.6 296.356C288.632 296.404 288.649 296.431 288.675 296.486C288.698 296.532 288.737 296.641 288.785 296.669C288.899 296.734 288.956 296.796 289.003 296.918C289.048 297.035 289.172 297.115 289.211 297.225C289.226 297.265 289.254 297.295 289.276 297.333C289.327 297.424 289.327 297.527 289.372 297.619C289.405 297.686 289.455 297.741 289.458 297.819C289.461 297.906 289.529 297.96 289.542 298.046C289.565 298.196 289.665 298.332 289.726 298.473C289.815 298.676 289.937 298.854 290.049 299.043C290.093 299.119 290.115 299.204 290.163 299.276C290.202 299.335 290.251 299.386 290.276 299.454C290.336 299.623 290.464 299.783 290.464 299.967C290.464 300.205 290.508 300.444 290.527 300.68C290.547 300.936 290.555 301.219 290.635 301.462C290.745 301.799 290.993 302.073 291.084 302.413C291.168 302.728 291.375 303.001 291.425 303.332C291.442 303.436 291.426 303.561 291.453 303.663C291.475 303.746 291.633 303.965 291.662 303.792" stroke="black" stroke-linecap="round" stroke-linejoin="round"/>
<path d="M291.812 303.321C292.047 303.532 292.196 303.956 292.219 304.267C292.223 304.32 292.261 304.351 292.261 304.412C292.261 304.456 292.261 304.501 292.261 304.545C292.261 304.667 292.28 304.785 292.315 304.903C292.359 305.049 292.408 305.19 292.464 305.332C292.514 305.461 292.493 305.602 292.535 305.733C292.566 305.829 292.55 305.944 292.578 306.042C292.606 306.142 292.545 306.277 292.594 306.369C292.663 306.496 292.625 306.689 292.625 306.831C292.625 306.941 292.635 307.13 292.711 307.214C292.808 307.322 292.769 307.52 292.835 307.647C292.871 307.717 292.845 307.79 292.87 307.861C292.9 307.941 292.905 308.022 292.934 308.103C293.025 308.348 292.983 308.606 293.172 308.806C293.213 308.849 293.277 308.939 293.305 308.989C293.324 309.023 293.33 309.047 293.332 309.085C293.333 309.143 293.375 309.145 293.396 309.193C293.466 309.351 293.546 309.492 293.546 309.673C293.546 309.783 293.588 309.951 293.641 310.048C293.718 310.192 293.674 310.441 293.705 310.599C293.744 310.799 293.82 311.02 293.91 311.205C293.95 311.288 293.995 311.411 293.995 311.504C293.995 311.744 294.117 311.973 294.124 312.208C294.126 312.312 294.16 312.417 294.183 312.519C294.214 312.657 294.16 312.808 294.2 312.946C294.237 313.072 294.25 313.199 294.295 313.322C294.336 313.435 294.381 313.551 294.407 313.664C294.429 313.767 294.445 313.863 294.445 313.969C294.445 314.048 294.402 314.13 294.402 314.2C294.402 314.308 294.338 314.396 294.338 314.508C294.338 314.586 294.324 314.674 294.359 314.743" stroke="black" stroke-linecap="round" stroke-linejoin="round"/>
<path d="M294.423 314.743C294.443 314.85 294.492 314.935 294.504 315.045C294.512 315.118 294.501 315.188 294.53 315.257C294.572 315.354 294.616 315.547 294.616 315.651C294.616 315.881 294.709 316.087 294.755 316.306C294.844 316.733 294.937 317.152 294.937 317.588C294.937 317.726 294.996 317.853 295.001 317.99C295.006 318.145 294.999 318.301 295.001 318.456C295.002 318.556 295.059 318.633 295.065 318.727C295.072 318.826 295.057 318.925 295.076 319.024C295.114 319.219 295.087 319.444 295.087 319.642C295.087 319.824 295.087 320.005 295.087 320.187C295.087 320.474 295.108 320.755 295.108 321.042C295.108 321.436 295.172 321.844 295.172 322.23" stroke="black" stroke-linecap="round" stroke-linejoin="round"/>
<path d="M295.237 322.53C295.207 322.712 295.304 322.79 295.341 322.949C295.364 323.045 295.344 323.169 295.344 323.268C295.344 323.474 295.344 323.681 295.344 323.888C295.344 324.492 295.344 325.096 295.344 325.7C295.344 326.205 295.344 326.706 295.344 327.215C295.344 327.344 295.274 327.446 295.235 327.568C295.2 327.679 295.15 327.784 295.096 327.887C294.976 328.116 294.98 328.326 294.98 328.585C294.98 328.841 294.991 329.123 294.83 329.332C294.714 329.481 294.659 329.728 294.659 329.914C294.659 330.125 294.613 330.282 294.466 330.445C294.382 330.538 294.385 330.699 294.403 330.818C294.424 330.955 294.49 331.071 294.51 331.203C294.533 331.353 294.573 331.486 294.573 331.642C294.573 331.753 294.552 331.855 294.552 331.963C294.552 332.1 294.463 332.28 294.392 332.395C294.355 332.455 294.359 332.506 294.333 332.562C294.305 332.62 294.235 332.639 294.209 332.69" stroke="black" stroke-linecap="round" stroke-linejoin="round"/>
<path d="M284.303 255.13C283.78 255.13 283.305 255.098 282.797 255.047C282.391 255.006 282.065 254.878 281.69 254.777C281.393 254.698 280.929 254.518 280.705 254.294C280.292 253.882 279.867 253.839 279.282 253.709" stroke="black" stroke-width="0.25" stroke-linecap="round" stroke-linejoin="round"/>
<path d="M281.29 261.653C281.164 262.3 280.614 262.757 280.165 263.205C279.93 263.44 279.724 263.577 279.366 263.577C279.075 263.577 278.991 263.784 278.738 263.823C278.372 263.879 277.958 263.827 277.59 263.827C277.204 263.827 276.831 263.911 276.437 263.911" stroke="black" stroke-width="0.25" stroke-linecap="round" stroke-linejoin="round"/>
<path d="M279.115 273.11C279.001 273.397 278.87 273.691 278.799 273.993C278.758 274.163 278.813 274.346 278.761 274.513C278.687 274.753 278.522 275.18 278.362 275.363C277.949 275.835 277.471 276.272 277.106 276.771C276.898 277.056 276.412 277.178 276.121 277.375C275.785 277.602 275.279 277.785 274.894 277.914C274.36 278.092 273.73 278.378 273.174 278.378" stroke="black" stroke-width="0.25" stroke-linecap="round" stroke-linejoin="round"/>
<path d="M277.692 280.887C277.314 281.498 276.837 281.944 276.707 282.68C276.629 283.119 276.604 283.539 276.604 283.981" stroke="black" stroke-width="0.25" stroke-linecap="round" stroke-linejoin="round"/>
<path d="M282.462 232.635C282.044 233.74 281.854 235.179 282.629 236.147" stroke="black" stroke-width="0.25" stroke-linecap="round" stroke-linejoin="round"/>
<path d="M280.454 233.471C280.454 234.165 280.105 236.182 280.872 236.565" stroke="black" stroke-width="0.25" stroke-linecap="round" stroke-linejoin="round"/>
<path d="M277.943 234.14C277.943 234.585 277.832 235.225 277.962 235.664C278.05 235.962 278.228 236.194 278.32 236.486C278.401 236.746 278.612 236.899 278.696 237.151" stroke="black" stroke-width="0.25" stroke-linecap="round" stroke-linejoin="round"/>
<path d="M265.483 240.906C265.215 241.174 264.831 241.336 264.491 241.491C264.138 241.651 264.131 242.101 263.801 242.3C263.555 242.449 263.335 242.617 263.13 242.823C262.963 242.989 262.793 243.167 262.638 243.344C262.545 243.451 262.514 243.593 262.419 243.696C262.379 243.74 262.326 243.765 262.286 243.805C262.111 243.98 261.99 244.188 261.768 244.318C261.639 244.394 261.52 244.481 261.386 244.551C261.258 244.617 261.088 244.642 260.979 244.744C260.88 244.837 260.908 245.035 260.799 245.136C260.695 245.231 260.636 245.341 260.549 245.45C260.469 245.55 260.305 245.584 260.235 245.695C260.115 245.884 259.925 246.045 259.79 246.224C259.657 246.399 259.583 246.585 259.424 246.744C259.168 247 258.705 247.079 258.557 247.424C258.512 247.53 258.568 247.64 258.568 247.748C258.568 247.926 258.493 247.909 258.352 248.008C258.224 248.097 258.068 248.146 257.933 248.225C257.851 248.273 257.775 248.258 257.712 248.34C257.62 248.459 257.45 248.54 257.385 248.679C257.314 248.832 257.2 248.9 257.083 249.014C256.978 249.116 256.845 249.156 256.756 249.28C256.677 249.391 256.57 249.456 256.478 249.552C256.397 249.636 256.398 249.672 256.357 249.764C256.335 249.813 256.301 249.861 256.254 249.885" stroke="black" stroke-linecap="round" stroke-linejoin="round"/>
<path d="M256.036 250.348C255.904 250.529 255.727 250.767 255.709 250.994C255.703 251.079 255.621 251.22 255.588 251.306C255.545 251.42 255.451 251.569 255.357 251.64C255.146 251.798 255.01 252.04 254.79 252.198C254.473 252.424 254.215 252.809 254.104 253.179C254.054 253.348 253.982 253.504 253.924 253.669C253.86 253.853 253.655 254.003 253.502 254.117C253.272 254.29 253.098 254.484 252.893 254.675C252.76 254.799 252.695 254.996 252.593 255.142C252.412 255.404 252.251 255.708 252.02 255.939C251.773 256.185 251.502 256.431 251.299 256.72C251.206 256.852 251.098 256.976 251.014 257.113C250.926 257.259 250.782 257.339 250.694 257.482C250.617 257.608 250.524 257.722 250.449 257.848C250.349 258.015 250.273 258.162 250.231 258.347C250.197 258.494 250.157 258.607 250.06 258.726C249.916 258.903 249.748 259.067 249.639 259.271C249.595 259.354 249.604 259.437 249.568 259.518C249.528 259.611 249.455 259.686 249.447 259.789C249.435 259.958 249.288 260.138 249.196 260.279C249.101 260.426 248.901 260.521 248.791 260.663C248.664 260.825 248.507 260.999 248.466 261.205C248.428 261.393 248.308 261.561 248.21 261.721C248.013 262.043 247.92 262.391 247.781 262.734C247.691 262.953 247.534 263.186 247.404 263.381C247.311 263.52 247.371 263.879 247.188 263.925" stroke="black" stroke-linecap="round" stroke-linejoin="round"/>
<path d="M246.943 264.415C246.886 264.584 246.833 264.753 246.785 264.925C246.77 264.979 246.796 265.044 246.773 265.095C246.731 265.19 246.695 265.302 246.629 265.382C246.454 265.596 246.18 265.939 246.18 266.225C246.18 266.652 245.818 266.975 245.608 267.315C245.374 267.696 245.168 268.151 245.091 268.591C245.026 268.963 244.725 269.276 244.683 269.645C244.675 269.716 244.593 269.741 244.568 269.808C244.528 269.913 244.513 270.02 244.491 270.13C244.462 270.276 244.406 270.433 244.358 270.574C244.314 270.703 244.317 270.847 244.296 270.981C244.253 271.246 244.104 271.5 244.016 271.752C243.945 271.954 243.942 272.17 243.872 272.366C243.837 272.463 243.818 272.556 243.775 272.653C243.736 272.742 243.649 272.791 243.619 272.88C243.567 273.038 243.573 273.192 243.533 273.351C243.491 273.519 243.367 273.623 243.282 273.765C243.154 273.981 242.987 274.235 242.915 274.477C242.863 274.651 242.946 274.879 242.874 275.038C242.792 275.217 242.733 275.39 242.654 275.572C242.488 275.957 242.214 276.261 242.028 276.631C241.948 276.792 241.931 276.989 241.885 277.163C241.853 277.281 241.77 277.425 241.77 277.543C241.77 277.718 241.742 277.912 241.742 278.101C241.742 278.166 241.683 278.295 241.647 278.359C241.588 278.466 241.559 278.58 241.531 278.699C241.482 278.907 241.424 279.147 241.491 279.373C241.51 279.437 241.442 279.543 241.375 279.543C241.268 279.543 241.224 279.709 241.198 279.788" stroke="black" stroke-linecap="round" stroke-linejoin="round"/>
<path d="M241.28 279.679C241.395 280.145 241.333 280.594 241.361 281.066C241.364 281.121 241.416 281.175 241.416 281.243C241.416 281.319 241.431 281.431 241.457 281.502C241.538 281.729 241.307 281.955 241.307 282.183C241.307 282.299 241.256 282.409 241.252 282.524C241.249 282.636 241.252 282.749 241.252 282.862C241.252 283.112 241.252 283.361 241.252 283.61C241.252 283.739 241.197 283.816 241.15 283.929C241.091 284.072 240.935 284.151 240.892 284.304C240.821 284.561 240.871 284.893 240.871 285.16C240.871 285.612 240.817 286.043 240.817 286.496C240.817 286.668 240.79 286.835 240.79 287.012C240.79 287.132 240.858 287.167 240.909 287.27C240.955 287.361 240.926 287.513 240.926 287.613C240.926 288.068 240.91 288.559 240.845 289.011C240.828 289.135 240.81 289.392 240.871 289.495C240.915 289.568 240.905 289.624 240.932 289.698C240.967 289.797 241.242 289.746 241.334 289.746" stroke="black" stroke-linecap="round" stroke-linejoin="round"/>
<path d="M240.898 289.909C241.24 290.499 241.225 291.134 241.225 291.799C241.225 292.188 241.361 292.578 241.361 292.967C241.361 293.165 241.339 293.363 241.334 293.555C241.33 293.682 241.334 293.809 241.334 293.936C241.334 294.107 241.28 294.263 241.28 294.432C241.28 294.62 241.289 294.897 241.239 295.079C241.187 295.266 241.213 295.483 241.13 295.665C241.07 295.796 241.142 295.973 241.11 296.113C241.094 296.185 241.062 296.272 241.062 296.346C241.062 296.452 240.982 296.527 240.98 296.636C240.971 297.059 241.007 297.475 241.007 297.895C241.007 298.024 240.993 298.16 241.009 298.288C241.022 298.393 241.14 298.471 241.143 298.568C241.148 298.684 241.193 298.916 241.062 298.943" stroke="black" stroke-linecap="round" stroke-linejoin="round"/>
<path d="M240.926 299.079C241.146 299.143 241.08 299.349 241.103 299.537C241.119 299.674 241.116 299.811 241.116 299.949C241.116 300.15 241.063 300.334 241.116 300.533C241.172 300.742 241.243 300.925 241.28 301.145C241.306 301.306 241.307 301.461 241.307 301.624C241.307 301.797 241.295 301.959 241.278 302.128C241.268 302.225 241.252 302.313 241.252 302.412C241.252 302.534 241.198 302.633 241.198 302.753C241.198 302.987 241.225 303.213 241.225 303.444C241.225 303.567 241.216 303.693 241.227 303.815C241.239 303.962 241.307 304.103 241.307 304.248C241.307 304.514 241.372 304.737 241.41 304.998C241.428 305.121 241.445 305.229 241.476 305.349C241.512 305.489 241.482 305.63 241.503 305.772C241.536 305.994 241.598 306.184 241.606 306.413C241.612 306.558 241.664 306.719 241.682 306.867C241.703 307.039 241.685 307.219 241.688 307.393C241.696 307.848 241.997 308.263 242.042 308.711C242.056 308.851 242.082 308.988 242.13 309.113C242.152 309.171 242.228 309.248 242.26 309.312C242.283 309.358 242.329 309.392 242.369 309.418" stroke="black" stroke-linecap="round" stroke-linejoin="round"/>
<path d="M242.369 309.908C242.376 310.224 242.595 310.407 242.668 310.698C242.695 310.805 242.753 310.826 242.818 310.904C242.897 310.999 242.931 311.133 242.939 311.255C242.952 311.467 243.069 311.686 243.102 311.905C243.129 312.078 243.152 312.237 243.207 312.405C243.273 312.612 243.271 312.856 243.334 313.064C243.402 313.291 243.455 313.53 243.561 313.744C243.605 313.834 243.664 313.937 243.675 314.038C243.681 314.085 243.754 314.131 243.778 314.18C243.808 314.238 243.802 314.297 243.825 314.356C243.867 314.466 243.918 314.572 243.961 314.683C244.011 314.81 244.027 314.936 244.07 315.064C244.123 315.221 244.197 315.389 244.22 315.552C244.253 315.791 244.4 315.995 244.436 316.231C244.467 316.429 244.553 316.589 244.603 316.778C244.655 316.978 244.712 317.235 244.83 317.404C244.893 317.495 244.914 317.626 244.944 317.73C244.986 317.873 245.082 318.032 245.147 318.167C245.193 318.263 245.334 318.578 245.469 318.559C245.538 318.549 245.526 318.472 245.608 318.541C245.678 318.598 245.67 318.668 245.696 318.745C245.708 318.779 245.761 318.797 245.785 318.822C245.928 318.964 245.914 319.185 246.005 319.343C246.034 319.395 246.015 319.488 246.017 319.546C246.019 319.649 246.091 319.772 246.126 319.869C246.173 320 246.273 320.103 246.31 320.241C246.342 320.36 246.407 320.476 246.446 320.595C246.517 320.805 246.555 321.061 246.561 321.281C246.569 321.554 246.774 321.723 246.927 321.921C247.006 322.022 247.129 322.19 247.174 322.315C247.253 322.535 247.337 322.726 247.458 322.938C247.499 323.01 247.535 323.098 247.581 323.165C247.626 323.23 247.695 323.261 247.726 323.343C247.786 323.502 247.85 323.7 247.944 323.839C248.008 323.933 247.992 324.047 248.053 324.141C248.099 324.212 248.116 324.321 248.147 324.404C248.204 324.56 248.26 324.699 248.331 324.852C248.369 324.933 248.436 325.005 248.488 325.078C248.558 325.174 248.575 325.288 248.615 325.396C248.683 325.578 248.759 325.759 248.842 325.934C248.88 326.013 248.881 326.105 248.93 326.185C248.964 326.241 249.015 326.312 249.033 326.375C249.195 326.942 249.112 327.596 249.338 328.138" stroke="black" stroke-linecap="round" stroke-linejoin="round"/>
<path d="M353.477 328.41C353.648 328.271 353.657 328.052 353.755 327.866C353.803 327.775 353.764 327.706 353.728 327.621C353.685 327.518 353.722 327.33 353.722 327.219C353.722 327.094 353.722 326.97 353.722 326.845C353.722 326.391 353.776 325.929 353.776 325.471C353.776 325.341 353.866 325.184 353.887 325.047C353.91 324.896 353.94 324.758 353.94 324.607C353.94 324.31 354.021 324.036 354.021 323.742C354.021 323.417 354.239 323.113 354.239 322.791C354.239 322.123 354.294 321.434 354.294 320.764C354.294 320.518 354.292 320.246 354.322 320.001C354.336 319.89 354.381 319.802 354.416 319.703C354.473 319.546 354.457 319.385 354.457 319.219C354.457 318.627 354.512 318.017 354.512 317.43C354.512 317.18 354.648 316.942 354.648 316.695C354.648 316.49 354.713 316.301 354.77 316.11C354.829 315.915 354.92 315.669 354.92 315.465C354.92 315.204 354.974 314.974 354.974 314.71C354.974 314.426 355.056 314.157 355.056 313.88" stroke="black" stroke-linecap="round" stroke-linejoin="round"/>
<path d="M355.165 313.663C355.165 313.407 355.239 313.124 355.301 312.875C355.334 312.742 355.335 312.605 355.377 312.471C355.443 312.259 355.384 312.002 355.464 311.8C355.528 311.641 355.469 311.462 355.493 311.295C355.505 311.215 355.538 311.135 355.573 311.063C355.617 310.973 355.614 310.87 355.655 310.778C355.728 310.615 355.682 310.371 355.682 310.193C355.682 309.82 355.764 309.47 355.764 309.098C355.764 307.794 355.791 306.485 355.791 305.173" stroke="black" stroke-linecap="round" stroke-linejoin="round"/>
<path d="M355.709 305.255C355.831 305.073 355.936 304.91 355.953 304.685C355.963 304.55 356.005 304.457 356.05 304.33C356.104 304.179 356.066 303.987 356.104 303.828C356.149 303.641 356.172 303.447 356.172 303.254C356.172 303.016 356.254 302.777 356.254 302.543C356.254 302.392 356.295 302.251 356.31 302.1C356.324 301.956 356.358 301.801 356.402 301.664C356.482 301.412 356.417 301.046 356.417 300.781C356.417 300.586 356.336 300.408 356.336 300.223C356.336 300.054 356.308 299.876 356.308 299.701C356.308 298.764 356.2 297.849 356.2 296.914C356.2 296.712 356.219 296.569 356.308 296.385C356.393 296.21 356.367 296.014 356.423 295.832C356.526 295.498 356.526 295.188 356.526 294.834" stroke="black" stroke-linecap="round" stroke-linejoin="round"/>
<path d="M356.499 294.698C356.499 293.498 356.526 292.287 356.526 291.082C356.526 290.53 356.499 289.982 356.499 289.433C356.499 289.197 356.499 288.96 356.499 288.724C356.499 288.447 356.408 288.169 356.363 287.896" stroke="black" stroke-linecap="round" stroke-linejoin="round"/>
<path d="M356.308 288.086C356.308 287.747 356.281 287.407 356.281 287.074C356.281 286.916 356.34 286.824 356.404 286.684C356.459 286.561 356.464 286.413 356.499 286.284C356.584 285.972 356.581 285.684 356.581 285.359C356.581 284.844 356.69 284.355 356.69 283.842C356.69 283.567 356.428 283.365 356.392 283.092C356.363 282.88 356.333 282.697 356.336 282.475C356.339 282.237 356.445 282.038 356.445 281.801C356.445 281.538 356.417 281.289 356.417 281.026C356.417 280.894 356.414 280.762 356.417 280.631C356.426 280.326 356.69 280.094 356.69 279.788" stroke="black" stroke-linecap="round" stroke-linejoin="round"/>
<path d="M356.499 279.76C356.375 279.629 356.402 279.561 356.39 279.401C356.386 279.344 356.336 279.317 356.336 279.257C356.336 279.202 356.336 279.147 356.336 279.092C356.336 278.898 356.39 278.721 356.39 278.522C356.39 278.302 356.372 278.072 356.392 277.853C356.4 277.76 356.443 277.677 356.445 277.584C356.447 277.466 356.428 277.336 356.457 277.221C356.496 277.063 356.465 276.89 356.513 276.739C356.581 276.52 356.526 276.206 356.526 275.978C356.526 275.71 356.526 275.442 356.526 275.174C356.526 274.809 356.445 274.467 356.445 274.102C356.445 273.964 356.441 273.786 356.411 273.65C356.357 273.401 356.39 273.121 356.39 272.864C356.39 272.478 356.39 272.092 356.39 271.707C356.39 271.572 356.412 271.414 356.375 271.283C356.323 271.096 356.254 270.916 356.206 270.727C356.041 270.085 356.036 269.455 356.036 268.789C356.036 267.503 356.009 266.22 356.009 264.931" stroke="black" stroke-linecap="round" stroke-linejoin="round"/>
<path d="M356.308 265.312C356.188 265.003 356.263 264.66 356.104 264.374C356.014 264.211 355.91 264.059 355.852 263.876C355.794 263.697 355.803 263.498 355.737 263.32C355.691 263.198 355.682 263.009 355.682 262.879C355.682 262.711 355.655 262.544 355.655 262.374C355.655 262.058 355.655 261.743 355.655 261.428C355.655 261.253 355.655 261.079 355.655 260.905C355.655 260.726 355.601 260.575 355.601 260.403C355.601 260.315 355.525 260.264 355.519 260.176C355.512 260.073 355.492 259.976 355.492 259.871C355.492 259.633 355.492 259.395 355.492 259.157C355.492 258.854 355.49 258.534 355.549 258.237C355.616 257.903 355.737 257.58 355.737 257.231" stroke="black" stroke-linecap="round" stroke-linejoin="round"/>
<path d="M355.41 257.15C355.317 256.911 355.141 256.705 355.112 256.442C355.075 256.107 355.138 255.761 355.109 255.425C355.074 255.022 354.939 254.642 354.894 254.238C354.857 253.904 354.893 253.544 354.893 253.207C354.893 252.829 354.893 252.45 354.893 252.071C354.893 251.706 354.913 251.317 354.805 250.967C354.688 250.588 354.587 250.161 354.566 249.761C354.555 249.553 354.523 249.345 354.511 249.135C354.506 249.041 354.445 248.937 354.43 248.839C354.414 248.742 354.409 248.639 354.381 248.546C354.316 248.327 354.349 248.079 354.322 247.855C354.311 247.76 354.324 247.662 354.321 247.566C354.318 247.473 354.275 247.382 354.268 247.288C354.25 247.067 354.158 246.875 354.158 246.647C354.158 246.412 354.158 246.176 354.158 245.941C354.158 245.635 354.076 245.339 354.076 245.03C354.076 244.749 354.076 244.467 354.076 244.186C354.076 244.033 354.092 243.876 354.037 243.73C353.987 243.6 353.958 243.457 353.872 243.344C353.826 243.285 353.796 243.27 353.764 243.207C353.726 243.129 353.656 243.069 353.628 242.986C353.599 242.9 353.613 242.798 353.613 242.708C353.613 242.568 353.609 242.427 353.613 242.288C353.619 242.102 353.667 241.925 353.667 241.737C353.667 241.56 353.695 241.387 353.695 241.211C353.695 240.894 353.831 240.603 353.831 240.28" stroke="black" stroke-linecap="round" stroke-linejoin="round"/>
<path d="M353.613 239.954C353.524 239.728 353.478 239.48 353.419 239.248C353.398 239.161 353.368 239.137 353.368 239.032C353.368 238.945 353.362 238.87 353.341 238.785C353.251 238.426 353.141 238.068 353.075 237.701C353.046 237.545 353.053 237.362 353.043 237.204C353.028 236.986 353.035 236.77 353.016 236.553C352.975 236.108 353.014 235.665 353.014 235.221C353.014 234.849 353.014 234.476 353.014 234.104C353.014 233.935 353.091 233.773 352.985 233.616C352.888 233.469 352.796 233.317 352.796 233.138C352.796 232.843 352.687 232.547 352.687 232.254C352.687 231.915 352.642 231.473 352.796 231.165" stroke="black" stroke-linecap="round" stroke-linejoin="round"/>
<path d="M352.415 231.383C352.23 231.059 352.279 230.759 352.279 230.403C352.279 230.072 352.061 229.817 352.061 229.478C352.061 229.294 351.959 229.103 351.952 228.913C351.943 228.668 351.919 228.393 351.892 228.145C351.871 227.955 351.905 227.737 351.859 227.552C351.832 227.446 351.837 227.336 351.81 227.232C351.755 227.018 351.64 226.819 351.544 226.621C351.423 226.373 351.449 226.056 351.367 225.793C351.261 225.453 351.281 225.087 351.132 224.758C350.963 224.381 350.823 223.996 350.674 223.612C350.616 223.462 350.611 223.351 350.523 223.216C350.421 223.059 350.416 222.898 350.387 222.72C350.353 222.508 350.374 222.289 350.34 222.077C350.308 221.88 350.352 221.665 350.264 221.479C350.229 221.403 350.243 221.336 350.237 221.255C350.229 221.141 350.171 220.996 350.134 220.886C350.11 220.813 350.077 220.763 350.074 220.684C350.07 220.597 349.992 220.535 349.992 220.445" stroke="black" stroke-linecap="round" stroke-linejoin="round"/>
<path d="M350.319 220.499C350.319 219.895 350.284 219.296 350.196 218.702C350.167 218.503 350.106 218.314 350.101 218.111C350.096 217.916 350.019 217.739 350.019 217.544C350.019 217.368 350.021 217.197 349.998 217.023C349.981 216.891 349.943 216.758 349.938 216.627C349.925 216.318 349.807 216.017 349.802 215.711C349.799 215.604 349.788 215.488 349.758 215.386C349.72 215.259 349.629 215.158 349.612 215.02C349.588 214.812 349.465 214.603 349.36 214.426C349.206 214.167 349.125 213.879 349.053 213.59C349.026 213.482 348.999 213.411 348.93 213.322C348.837 213.202 348.814 213.061 348.765 212.92C348.696 212.718 348.673 212.516 348.637 212.309C348.567 211.916 348.492 211.55 348.265 211.22C348.058 210.919 347.873 210.611 347.684 210.296C347.599 210.155 347.55 210.041 347.513 209.874C347.477 209.712 347.406 209.594 347.406 209.425" stroke="black" stroke-linecap="round" stroke-linejoin="round"/>
<path d="M347.297 209.643C347.164 209.461 347.068 209.219 346.958 209.019C346.908 208.928 346.922 208.821 346.873 208.731C346.839 208.669 346.857 208.532 346.807 208.494C346.753 208.454 346.743 208.312 346.731 208.249C346.718 208.181 346.725 208.107 346.725 208.038C346.725 207.947 346.694 207.904 346.674 207.821C346.651 207.732 346.651 207.658 346.622 207.569C346.607 207.523 346.631 207.467 346.61 207.424C346.596 207.395 346.544 207.371 346.522 207.344C346.479 207.288 346.434 207.217 346.4 207.155C346.342 207.05 346.216 206.984 346.132 206.901C345.998 206.767 345.896 206.628 345.811 206.46C345.729 206.294 345.685 206.084 345.566 205.943C345.538 205.909 345.508 205.773 345.488 205.726C345.456 205.654 345.388 205.634 345.364 205.562" stroke="black" stroke-linecap="round" stroke-linejoin="round"/>
<path d="M241.028 278.837C240.689 277.726 240.717 277.247 240.991 276.205C241.058 275.953 241.258 275.753 241.325 275.468C241.402 275.142 241.463 274.933 241.473 274.57C241.495 273.786 241.617 273.031 241.436 272.238C241.286 271.577 241.325 270.895 241.325 270.22C241.325 269.411 241.325 268.602 241.325 267.794C241.325 267.046 241.473 266.322 241.473 265.581C241.473 264.828 241.597 264.168 241.362 263.419C241.266 263.112 241.382 262.79 241.251 262.488C241.118 262.182 241.177 261.799 241.177 261.47C241.177 259.511 241.548 257.603 241.548 255.646C241.548 254.972 241.548 254.297 241.548 253.623C241.548 253.365 241.548 253.107 241.548 252.849C241.548 252.547 241.399 252.29 241.399 251.98C241.399 250.645 241.473 249.298 241.473 247.976C241.473 247.757 241.615 247.559 241.68 247.341C241.736 247.151 241.606 246.806 241.733 246.653C241.848 246.516 241.76 246.142 241.774 245.97C241.814 245.494 241.919 245.064 241.919 244.581" stroke="black" stroke-linecap="round" stroke-linejoin="round"/>
<path d="M241.696 244.878C241.696 243.745 242.067 242.664 242.067 241.504C242.067 241.016 242.29 240.585 242.29 240.1C242.29 239.814 242.353 239.544 242.364 239.259C242.37 239.092 242.438 238.937 242.438 238.765C242.438 238.605 242.576 238.549 242.586 238.411C242.601 238.22 242.598 237.951 242.735 237.801C242.924 237.593 242.795 237.134 242.916 236.87C243.156 236.344 243.114 235.876 243.184 235.317C243.198 235.203 243.301 235.157 243.324 235.053C243.379 234.809 243.399 234.571 243.493 234.333C243.655 233.924 243.75 233.57 243.831 233.146C243.931 232.623 244.07 231.988 244.07 231.457C244.07 230.965 244.144 230.502 244.144 230.007C244.144 229.417 243.996 228.86 244.128 228.269C244.364 227.209 244.59 226.217 244.59 225.122C244.59 224.644 244.961 224.199 244.961 223.705C244.961 223.196 244.82 222.755 244.977 222.247C245.044 222.028 244.971 221.745 245.076 221.55C245.218 221.286 245.207 220.965 245.369 220.739C245.528 220.516 245.554 220.161 245.554 219.89C245.554 219.597 245.702 219.318 245.702 219.001" stroke="black" stroke-linecap="round" stroke-linejoin="round"/>
<path d="M245.586 219.48C245.586 219.088 245.586 218.697 245.586 218.305C245.586 217.813 245.5 217.384 245.5 216.893C245.5 216.629 245.453 216.389 245.457 216.124C245.463 215.748 245.629 215.392 245.629 215.026C245.629 214.761 245.693 214.503 245.781 214.258C245.863 214.029 245.759 213.774 245.759 213.546C245.759 212.992 245.716 212.426 245.716 211.864C245.716 211.728 245.726 211.589 245.716 211.454C245.699 211.222 245.552 211.004 245.543 210.773C245.536 210.579 245.563 210.34 245.49 210.159C245.338 209.779 245.603 209.258 245.435 208.889C245.352 208.705 245.428 208.462 245.294 208.294C245.258 208.249 245.286 208.108 245.284 208.054C245.28 207.936 245.198 207.862 245.198 207.743" stroke="black" stroke-linecap="round" stroke-linejoin="round"/>
<path d="M245.198 207.225C245.198 206.95 245.224 206.778 245.303 206.518C245.344 206.383 245.37 206.244 245.37 206.103C245.37 205.833 245.414 205.567 245.414 205.293C245.414 204.999 245.414 204.705 245.414 204.411C245.414 203.92 245.543 203.462 245.543 202.972C245.543 202.589 245.512 202.269 245.457 201.896C245.424 201.675 245.327 201.475 245.327 201.251C245.327 201.055 245.241 200.926 245.241 200.736C245.241 199.97 245.414 199.32 245.414 198.552C245.414 198.025 245.37 197.509 245.37 196.984C245.37 196.487 245.447 196.056 245.534 195.565C245.631 195.011 245.543 194.37 245.543 193.805C245.543 193.274 245.543 192.742 245.543 192.211C245.543 191.92 245.5 191.622 245.5 191.324C245.5 191.01 245.467 190.718 245.198 190.516C245.096 190.44 245.192 190.158 245.207 190.07C245.273 189.704 245.369 189.343 245.433 188.977C245.479 188.712 245.56 188.474 245.62 188.215C245.712 187.816 245.63 187.314 245.63 186.901C245.63 186.198 245.673 185.506 245.673 184.806C245.673 184.114 245.543 183.481 245.543 182.792C245.543 182.584 245.621 182.359 245.651 182.152C245.703 181.799 245.716 181.45 245.716 181.095C245.716 180.786 245.716 180.478 245.716 180.169C245.716 179.898 245.758 179.564 245.812 179.297C245.877 178.97 245.889 178.669 245.889 178.335C245.889 177.975 245.89 177.653 245.781 177.302C245.702 177.048 245.788 176.75 245.697 176.511C245.638 176.358 245.63 176.263 245.63 176.094C245.63 175.449 245.586 174.795 245.586 174.157C245.586 173.62 245.5 173.093 245.5 172.572C245.5 172.317 245.536 172.029 245.498 171.777C245.454 171.49 245.37 171.18 245.37 170.892" stroke="black" stroke-linecap="round" stroke-linejoin="round"/>
<path d="M245.111 171.496C245.111 171.149 245.143 170.829 245.195 170.487C245.231 170.253 245.388 170.036 245.411 169.794C245.432 169.573 245.5 169.408 245.5 169.176C245.5 168.974 245.5 168.773 245.5 168.571C245.5 168.133 245.428 167.625 245.63 167.222C245.829 166.824 245.759 166.178 245.759 165.752C245.759 165.383 245.759 165.014 245.759 164.645C245.759 164.348 245.803 164.017 245.737 163.729C245.692 163.527 245.697 163.311 245.663 163.106C245.63 162.905 245.544 162.724 245.505 162.528C245.451 162.258 245.467 161.994 245.38 161.734C245.354 161.655 245.361 161.524 245.373 161.442C245.408 161.199 245.416 160.968 245.414 160.718C245.41 160.224 245.294 159.817 245.14 159.352C245.092 159.207 244.982 158.987 244.982 158.831C244.982 158.689 245.125 158.572 245.145 158.421C245.177 158.181 245.155 157.928 245.155 157.686C245.155 156.911 245.214 156.142 245.198 155.367C245.195 155.251 245.115 155.17 245.111 155.065C245.106 154.918 245.111 154.769 245.111 154.622C245.111 154.119 245.068 153.621 245.068 153.116C245.068 152.595 245.098 152.078 245.111 151.561C245.134 150.7 245.111 149.835 245.111 148.974C245.111 148.288 245 147.486 245.145 146.814C245.197 146.575 245.155 146.28 245.155 146.037C245.155 145.613 245.155 145.189 245.155 144.764C245.155 143.761 244.895 142.795 244.895 141.799C244.895 141.561 244.761 140.751 245.003 140.643C245.205 140.554 245.201 140.133 245.231 139.953C245.271 139.722 245.327 139.496 245.327 139.263" stroke="black" stroke-linecap="round" stroke-linejoin="round"/>
<path d="M244.766 140.212C245.339 139.77 245.543 139.132 245.543 138.421C245.543 138.02 245.566 137.608 245.627 137.213C245.725 136.577 245.716 135.892 245.716 135.247C245.716 134.579 245.716 133.911 245.716 133.243C245.716 132.713 245.734 132.18 245.713 131.651C245.692 131.102 245.543 130.6 245.543 130.05C245.543 129.037 245.543 128.014 245.543 127.008C245.543 126.683 245.466 126.392 245.392 126.082C245.34 125.863 245.37 125.615 245.37 125.392C245.37 124.734 245.414 124.083 245.414 123.426C245.414 122.665 245.662 121.967 245.716 121.216C245.747 120.782 245.759 120.348 245.759 119.907C245.759 119.425 245.845 118.951 245.845 118.464" stroke="black" stroke-linecap="round" stroke-linejoin="round"/>
<path d="M245.586 118.507C245.586 118.27 245.586 118.032 245.586 117.795C245.586 117.499 245.67 117.34 245.821 117.102C245.887 117 245.87 116.891 245.898 116.781C245.934 116.643 246.012 116.503 246.018 116.359C246.028 116.112 246.018 115.863 246.018 115.616C246.018 115.318 246.147 115.043 246.188 114.753C246.212 114.585 246.215 114.428 246.256 114.259C246.291 114.109 246.363 114.013 246.363 113.847C246.363 113.565 246.363 113.284 246.363 113.003C246.363 112.704 246.493 112.414 246.493 112.121C246.493 111.817 246.697 111.517 246.709 111.205C246.718 110.961 246.82 110.777 246.925 110.567C247.1 110.217 247.201 109.469 247.572 109.263C247.653 109.218 247.76 109.042 247.832 108.971C247.924 108.879 247.963 108.763 248.047 108.669C248.37 108.308 248.755 108.049 248.827 107.547C248.852 107.374 249.017 107.191 249.108 107.048C249.168 106.954 249.275 106.863 249.364 106.794C249.445 106.732 249.498 106.603 249.583 106.554C249.74 106.465 249.836 106.306 250.01 106.233C250.231 106.14 250.487 106.161 250.691 106.017C250.844 105.91 250.991 105.816 251.156 105.725C251.373 105.606 251.652 105.442 251.837 105.293C252.165 105.032 252.536 104.858 252.936 104.708C253.262 104.586 253.576 104.428 253.9 104.31C254.206 104.199 254.403 103.961 254.68 103.812C255.159 103.554 255.729 103.398 256.273 103.277C256.42 103.244 256.446 103.265 256.563 103.189C256.705 103.096 256.908 103.059 257.062 102.973C257.349 102.812 257.687 102.584 258.012 102.584C258.431 102.584 258.852 102.585 259.264 102.661C259.582 102.72 259.911 102.636 260.223 102.628C260.94 102.608 261.647 102.541 262.363 102.541C262.767 102.541 263.165 102.592 263.527 102.752C263.827 102.886 264.237 102.881 264.558 102.951C264.716 102.986 264.852 103.06 265.016 103.093C265.097 103.109 265.167 103.183 265.242 103.189C265.339 103.195 265.438 103.177 265.534 103.198C265.865 103.272 266.183 103.456 266.527 103.491C266.65 103.503 266.787 103.545 266.897 103.596C267.039 103.662 267.213 103.632 267.348 103.706C267.568 103.829 267.809 103.899 268.019 104.032C268.307 104.215 268.531 104.465 268.806 104.656C269.141 104.888 269.457 105.115 269.746 105.413C269.895 105.566 269.935 105.779 270.135 105.888C270.27 105.961 270.319 106.113 270.456 106.19C270.724 106.339 270.941 106.51 271.147 106.727C271.491 107.09 271.767 107.476 272.119 107.827C272.348 108.056 272.385 108.377 272.57 108.623C272.757 108.872 272.874 109.184 273.069 109.421C273.358 109.775 273.754 110.006 274.064 110.352C274.119 110.413 274.138 110.561 274.17 110.639C274.267 110.878 274.344 111.131 274.448 111.363C274.52 111.522 274.681 111.636 274.741 111.785C274.796 111.924 274.849 112.053 274.894 112.197C274.971 112.445 274.956 112.755 275.057 112.986C275.195 113.301 275.351 113.695 275.376 114.041C275.39 114.22 275.376 114.387 275.338 114.559C275.326 114.612 275.379 114.724 275.379 114.796C275.379 114.995 275.551 115.179 275.614 115.362C275.68 115.554 275.737 115.785 275.851 115.956C275.926 116.069 275.901 116.242 275.93 116.373C275.961 116.51 276.003 116.653 276.06 116.781C276.208 117.115 276.156 117.561 276.156 117.913C276.156 118.315 276.061 118.67 276.07 119.078C276.079 119.516 276.372 119.918 276.372 120.343C276.372 120.953 276.395 121.558 276.281 122.156C276.23 122.424 276.131 122.71 276.05 122.973C275.999 123.14 276.07 123.266 276.07 123.429C276.07 123.867 276.149 124.3 276.11 124.74C276.051 125.418 275.871 126.291 276.113 126.955C276.253 127.34 276.199 127.803 276.199 128.206C276.199 128.302 276.221 128.809 276.156 128.777" stroke="black" stroke-linecap="round" stroke-linejoin="round"/>
<path d="M275.854 129.165C275.854 130.019 275.747 130.966 276.007 131.778C276.053 131.92 276.064 132.175 276.07 132.325C276.077 132.516 276.112 132.717 276.156 132.903C276.297 133.501 276.102 134.141 276.209 134.741C276.375 135.674 276.329 136.62 276.329 137.57C276.329 137.763 276.329 137.957 276.329 138.15C276.329 138.624 276.199 139.079 276.199 139.543C276.199 140.079 276.199 140.615 276.199 141.152C276.199 141.724 276.252 142.372 276.113 142.928C275.974 143.482 276.096 144.05 275.916 144.594C275.592 145.575 275.681 146.66 275.681 147.687C275.681 147.872 275.658 148.118 275.595 148.291C275.513 148.514 275.551 148.779 275.551 149.015C275.551 149.319 275.543 149.599 275.628 149.887C275.727 150.22 275.724 150.582 275.724 150.935C275.724 151.132 275.681 151.32 275.681 151.517C275.681 151.695 275.802 151.767 275.854 151.56" stroke="black" stroke-linecap="round" stroke-linejoin="round"/>
<path d="M275.767 151.733C275.767 152.455 275.724 153.174 275.724 153.891C275.724 154.273 275.784 154.699 275.918 155.058C276.074 155.473 276.07 155.978 276.07 156.415C276.07 156.961 275.983 157.492 275.983 158.033C275.983 158.368 276.026 158.692 276.026 159.026C276.026 159.783 276.001 160.551 275.983 161.298C275.978 161.534 275.921 161.728 275.856 161.955C275.805 162.135 275.838 162.328 275.748 162.494C275.652 162.673 275.724 163.055 275.724 163.254C275.724 164.028 275.681 164.792 275.681 165.568C275.681 165.942 275.751 166.402 275.671 166.769C275.617 167.02 275.595 167.293 275.595 167.55C275.595 167.796 275.595 168.042 275.595 168.289C275.595 168.434 275.595 168.579 275.595 168.725C275.595 168.869 275.614 168.895 275.465 168.821" stroke="black" stroke-linecap="round" stroke-linejoin="round"/>
<path d="M275.638 169.08C275.647 169.609 275.81 170.131 275.81 170.674C275.81 171.041 275.81 171.409 275.81 171.777C275.81 172.33 275.81 172.884 275.81 173.438C275.81 173.836 275.777 174.253 275.813 174.651C275.83 174.842 275.923 175.019 275.957 175.207C276.003 175.466 275.987 175.736 276.017 175.998C276.08 176.562 276.156 177.114 276.156 177.686C276.156 178.263 276.113 178.838 276.113 179.412C276.113 180.446 276.186 181.512 276.072 182.538C276.015 183.049 275.81 183.535 275.81 184.063C275.81 184.775 275.822 185.488 275.81 186.201C275.802 186.772 275.688 187.343 275.616 187.905C275.556 188.377 275.638 188.831 275.638 189.298C275.638 189.724 275.688 190.131 275.681 190.559C275.677 190.817 275.497 191.053 275.381 191.276C275.31 191.412 275.301 191.664 275.292 191.82C275.28 192.044 275.249 192.258 275.249 192.484C275.249 192.646 275.338 192.72 275.388 192.865C275.457 193.063 275.617 193.451 275.379 193.546" stroke="black" stroke-linecap="round" stroke-linejoin="round"/>
<path d="M275.638 194.064C275.638 194.611 275.638 195.157 275.638 195.704" stroke="black" stroke-linecap="round" stroke-linejoin="round"/>
<path d="M252.156 188.04C253.746 188.369 255.119 188.852 256.729 188.852C258.236 188.852 259.576 189.122 261.092 189.122" stroke="black" stroke-width="0.25" stroke-linecap="round" stroke-linejoin="round"/>
<path d="M260.144 189.122C260.518 189.122 261.545 189.22 261.874 188.957C262.278 188.634 262.518 188.467 263.092 188.446C264.312 188.401 265.371 187.363 266.507 187.363" stroke="black" stroke-width="0.25" stroke-linecap="round" stroke-linejoin="round"/>
<path d="M252.291 182.221C252.719 181.939 253.483 181.139 254.051 181.139C254.593 181.139 255.134 181.139 255.676 181.139C256.359 181.139 256.867 181.045 257.504 180.801C258.199 180.533 258.791 180.587 259.482 180.395C260.613 180.081 262.067 180.327 263.258 180.327C264.186 180.327 265.113 180.327 266.041 180.327C266.85 180.327 267.671 180.282 268.478 180.327C269.094 180.361 269.664 181.348 270.163 181.68" stroke="black" stroke-width="0.25" stroke-linecap="round" stroke-linejoin="round"/>
<path d="M253.239 138.111C256.706 138.111 260.095 138.652 263.559 138.652C265.131 138.652 266.703 138.652 268.275 138.652C268.859 138.652 269.443 138.652 270.028 138.652C270.634 138.652 271.13 138.101 271.652 137.84" stroke="black" stroke-width="0.25" stroke-linecap="round" stroke-linejoin="round"/>
<path d="M252.562 137.976C251.377 138.207 251.248 137.744 250.531 137.028" stroke="black" stroke-width="0.25" stroke-linecap="round" stroke-linejoin="round"/>
<path d="M255.947 139.87C257.711 139.526 259.595 140.14 261.362 140.14" stroke="black" stroke-width="0.25" stroke-linecap="round" stroke-linejoin="round"/>
<path d="M345.998 240.112C347.645 241.274 349.137 241.678 351.092 241.678" stroke="black" stroke-width="0.25" stroke-linecap="round" stroke-linejoin="round"/>
<path d="M290.524 282.254C293.119 287.895 295.869 293.5 298.294 299.218C298.818 300.452 298.913 301.075 298.972 302.319C299.059 304.137 299.68 305.901 300.015 307.686C300.795 311.845 302.275 316.089 303.457 320.168C305.221 326.257 305.073 333.304 305.073 339.685C305.073 342.37 305.467 345.488 304.839 348.127C304.243 350.627 302.347 352.488 301.892 355.163C301.23 359.059 300.147 362.687 298.972 366.211" stroke="black" stroke-width="0.25" stroke-linecap="round" stroke-linejoin="round"/>
<path d="M287.708 270.998C289.597 272.485 291.437 274.447 292.871 276.392C294.488 278.585 297.059 280.255 298.294 282.723C299.578 285.29 300.155 288.143 301.553 290.723C303.004 293.4 302.96 296.323 304.343 299.087C306.196 302.79 308.587 308.067 308.828 312.272C308.933 314.116 310.705 315.59 310.705 317.484C310.705 319.195 310.705 320.906 310.705 322.617C310.705 328.237 310.705 333.856 310.705 339.476C310.705 342.14 310.663 344.611 310.262 347.215C309.936 349.329 307.889 350.837 307.889 353.078" stroke="black" stroke-width="0.25" stroke-linecap="round" stroke-linejoin="round"/>
<rect y="80.3237" width="564" height="23.5432" rx="5" fill="black"/>
<rect x="83.145" width="45.7297" height="185.576" rx="14" fill="black"/>
<rect x="37.4152" y="20.7734" width="45.7297" height="144.029" rx="14" fill="black"/>
<path d="M555.686 68.1655C555.686 62.6426 551.208 58.1655 545.686 58.1655H528.199C526.542 58.1655 525.199 59.5086 525.199 61.1655V123.025C525.199 124.682 526.542 126.025 528.199 126.025H545.686C551.208 126.025 555.686 121.548 555.686 116.025V68.1655Z" fill="black"/>
<rect x="479.469" y="20.7734" width="45.7297" height="144.029" rx="14" fill="black"/>
<rect x="433.74" width="45.7297" height="185.576" rx="14" fill="black"/>
</svg>
